# xmcd
#
# Track frame offsets:
#	150
#	3315
#	12917
#	14129
#	32392
#	33712
#	53040
#	54155
#	65780
#	66751
#	81192
#	82061
#	95182
#	96228
#	115426
#	116372
#	130816
#	131808
#	143220
#	144775
#	160558
#	161542
#	178381
#	179690
#	193335
#	219391
#	231425
#	243687
#	245151
#	257495
#	258405
#	274363
#	275527
#
# Disc length: 3823 seconds
#
# Revision: 0
# Processed by: cddbd v1.4b42PL1 Copyright (c) Steve Scherf et al.
# Submitted via: EasyCDDAExtractor 4.5.0.2
#
DISCID=f50eed21
DTITLE=Jorge Moises - Gandaia
DYEAR=1900
DGENRE=Country
TTITLE0=Locução
TTITLE1=Gandaia
TTITLE2=Locução
TTITLE3=Quebramso o Pau
TTITLE4=Locução
TTITLE5=Seu Adeus Doeu Demais
TTITLE6=Locução
TTITLE7=Radar
TTITLE8=Locução
TTITLE9=Linguaruda
TTITLE10=Locução
TTITLE11=Rodeio Viola e Muié
TTITLE12=Locução
TTITLE13=Por Amor
TTITLE14=Locução
TTITLE15=Cowboy Cantor
TTITLE16=Locução
TTITLE17=Gandaia (Versão Dance)
TTITLE18=Locução
TTITLE19=Minha Sogra
TTITLE20=Locução
TTITLE21=Roça
TTITLE22=Locução
TTITLE23=Balançou, Balançou
TTITLE24=Poema Berrante
TTITLE25=Locução (Só Baixaria!!)
TTITLE26=Rei da Zona
TTITLE27=Locução
TTITLE28=Ti Amo Porra
TTITLE29=Locução
TTITLE30=Na Minha Casa Tá Entrando Outro Macho
TTITLE31=Locução
TTITLE32=Corno Chorão
EXTD=
EXTT0=
EXTT1=
EXTT2=
EXTT3=
EXTT4=
EXTT5=
EXTT6=
EXTT7=
EXTT8=
EXTT9=
EXTT10=
EXTT11=
EXTT12=
EXTT13=
EXTT14=
EXTT15=
EXTT16=
EXTT17=
EXTT18=
EXTT19=
EXTT20=
EXTT21=
EXTT22=
EXTT23=
EXTT24=
EXTT25=
EXTT26=
EXTT27=
EXTT28=
EXTT29=
EXTT30=
EXTT31=
EXTT32=
PLAYORDER=
